<svg width="14" height="14" viewBox="0 0 14 14" fill="none" xmlns="http://www.w3.org/2000/svg">
<g clip-path="url(#clip0_0_1)">
<path d="M11.2724 5.22125C11.3275 4.57452 11.1189 3.90913 10.6431 3.39418C10.6309 3.38093 10.618 3.36815 10.6047 3.35577C10.0897 2.87992 9.4242 2.67159 8.77756 2.72641C8.78921 1.98832 8.5371 1.28512 8.03801 0.785988C7.53214 0.279934 6.92414 0 6.3574 0C6.24826 0 6.14063 0.0104053 6.03561 0.0315367C5.62761 0.113725 5.06866 0.388937 4.72322 1.23442L3.65138 3.86329C3.65056 3.86508 3.64987 3.86687 3.64914 3.86865L1.97614 7.97205L3.97917 9.97504L6.23249 7.04235L6.95632 7.76619L4.0235 10.0194L6.03227 12.0282L10.1317 10.3519C10.1338 10.3511 10.136 10.3502 10.1381 10.3494L12.7648 9.27532C13.6097 8.93002 13.885 8.37107 13.9672 7.96311C14.0981 7.31252 13.8161 6.56389 13.2127 5.96062C12.7136 5.46162 12.01 5.20997 11.2724 5.22125ZM8.28416 4.37209C8.66709 4.01254 9.25612 4.00117 9.65124 4.34766C9.99773 4.74274 9.98627 5.33167 9.62663 5.71456L8.05603 6.9213L7.07747 5.94265L8.28416 4.37209ZM3.09624 8.86736L4.53313 5.3429L5.25187 6.06174L3.09624 8.86736ZM6.09685 4.96199L5.09639 3.96152L5.99642 1.75414C6.04822 1.62717 6.15759 1.40971 6.30698 1.37964C6.45911 1.34902 6.76169 1.45431 7.06555 1.75826C7.4648 2.15756 7.51348 2.90101 7.18849 3.54119L6.09685 4.96199ZM5.10762 10.9208L7.93698 8.74694L8.65871 9.46871L5.10762 10.9208ZM12.6192 7.69179C12.5891 7.84122 12.3716 7.95055 12.2445 8.00253L10.0391 8.90426L9.03687 7.902L10.4576 6.81032C11.0978 6.48542 11.8412 6.53405 12.2405 6.93326C12.5444 7.23708 12.6498 7.53942 12.6192 7.69179Z" fill="#F8B720"/>
<path d="M4.81497 12.7556L1.24963 9.19029L0.763517 9.67645C-0.227505 10.6671 -0.255604 12.2463 0.699344 13.2715C0.710345 13.2834 0.721942 13.2948 0.733768 13.3059C1.21434 13.7536 1.84099 14.0001 2.49836 14.0001C3.18978 14.0001 3.83986 13.7308 4.32886 13.2418L4.81497 12.7556Z" fill="#F8B720"/>
</g>
<defs>
<clipPath id="clip0_0_1">
<rect width="14" height="14" fill="white"/>
</clipPath>
</defs>
</svg>
