<svg id="Layer_1" data-name="Layer 1" xmlns="http://www.w3.org/2000/svg" xmlns:xlink="http://www.w3.org/1999/xlink" viewBox="0 0 332.99 275.44" width="406" height="306" class="illustration styles_illustrationTablet__1DWOa"><defs><linearGradient id="linear-gradient" x1="302.1" y1="196.85" x2="325.39" y2="77.86" gradientTransform="matrix(1, 0, 0, -1, 0, 352)" gradientUnits="userSpaceOnUse"><stop offset="0.01"></stop><stop offset="0.08" stop-opacity="0.69"></stop><stop offset="0.21" stop-opacity="0.32"></stop><stop offset="1" stop-opacity="0"></stop></linearGradient><linearGradient id="linear-gradient-2" x1="196.59" y1="221.7" x2="219.88" y2="102.71" xlink:href="#linear-gradient"></linearGradient><linearGradient id="linear-gradient-3" x1="316.69" y1="172.04" x2="313.32" y2="137.86" xlink:href="#linear-gradient"></linearGradient><linearGradient id="linear-gradient-4" x1="148.35" y1="152.65" x2="130.63" y2="109.62" xlink:href="#linear-gradient"></linearGradient><linearGradient id="linear-gradient-5" x1="246.22" y1="192.32" x2="201.32" y2="222.36" xlink:href="#linear-gradient"></linearGradient><linearGradient id="linear-gradient-6" x1="356.81" y1="191.29" x2="285.41" y2="191.63" xlink:href="#linear-gradient"></linearGradient><linearGradient id="linear-gradient-7" x1="287.81" y1="189.59" x2="276.2" y2="199.15" xlink:href="#linear-gradient"></linearGradient><linearGradient id="linear-gradient-8" x1="117.75" y1="190.89" x2="118.42" y2="155.45" xlink:href="#linear-gradient"></linearGradient><linearGradient id="linear-gradient-9" x1="155.39" y1="193.79" x2="156.06" y2="158.34" xlink:href="#linear-gradient"></linearGradient><linearGradient id="linear-gradient-10" x1="84.11" y1="172.07" x2="84.78" y2="136.62" xlink:href="#linear-gradient"></linearGradient><linearGradient id="linear-gradient-11" x1="246.19" y1="201.55" x2="246.87" y2="166.1" xlink:href="#linear-gradient"></linearGradient><linearGradient id="linear-gradient-12" x1="246.16" y1="145.71" x2="246.84" y2="110.27" xlink:href="#linear-gradient"></linearGradient><linearGradient id="linear-gradient-13" x1="346.84" y1="194.04" x2="347.51" y2="158.6" xlink:href="#linear-gradient"></linearGradient><linearGradient id="linear-gradient-14" x1="91.8" y1="83.28" x2="79.65" y2="30.28" xlink:href="#linear-gradient"></linearGradient><linearGradient id="linear-gradient-15" x1="76.56" y1="188.44" x2="112.34" y2="153" xlink:href="#linear-gradient"></linearGradient><linearGradient id="linear-gradient-16" x1="71.65" y1="228.33" x2="64.56" y2="168.33" xlink:href="#linear-gradient"></linearGradient><linearGradient id="linear-gradient-17" x1="88.05" y1="215.86" x2="88.4" y2="215.86" xlink:href="#linear-gradient"></linearGradient><linearGradient id="linear-gradient-18" x1="50.68" y1="216.14" x2="113.21" y2="208.29" xlink:href="#linear-gradient"></linearGradient></defs><title>5</title><g id="Layer_1-2" data-name="Layer 1"><path d="M365.93,240.31c-6.34,10.86-18.47,15.77-30,18.87-29.57,7.93-58.13,4.47-87.93,5.26-12.92.34-24.75,7.9-34.85,16.65s-19.2,19-30.27,26.22c-23.75,15.53-53.13,15.44-80.84,14.88-7.17-.13-14.43-.29-21.39-2.18-18.56-5-33.31-23.1-36.44-43.6-.07-.43-.13-.86-.18-1.28s-.08-.61-.12-.92a3.13,3.13,0,0,0-.07-.62,2.91,2.91,0,0,1-.07-.74c0-.25-.08-.77-.1-1.16s-.08-1-.11-1.56h0c0-.5-.05-1-.06-1.51v-2.16h0v-2.57a17.5,17.5,0,0,1,.09-2.17,1.61,1.61,0,0,0,0-.31c0-.62.08-1.24.13-1.86V259a11.89,11.89,0,0,1,.11-1.2c.07-.76.16-1.52.25-2.28h0c.08-.58.15-1.17.23-1.74l.06-.46c.08-.58.17-1.14.26-1.72s.21-1.3.32-2,.23-1.3.35-2c.24-1.3.5-2.62.77-3.92.14-.66.27-1.31.41-2l.44-2c.15-.66.29-1.31.45-2,.64-2.8,1.33-5.59,2-8.39.28-1.13.56-2.26.83-3.39.1-.4.19-.81.29-1.2l.54-2.31c.37-1.52.72-3.06,1.06-4.6.17-.76.33-1.53.49-2.3s.31-1.53.47-2.3l.32-1.68.24-1.35q.54-3,.92-5.92c.08-.58.15-1.16.22-1.74a2.16,2.16,0,0,0,0-.36,9.91,9.91,0,0,1,.12-1.08c.05-.52.1-1,.14-1.54a2.54,2.54,0,0,0,0-.39c0-.56.09-1.14.13-1.72v-.67c0-.51.06-1,.07-1.52q.13-3.39,0-6.79a8.5,8.5,0,0,0-.1-1.59,96.6,96.6,0,0,0-2.44-14.72c-.92-3.9-2-7.84-3.14-11.78-4.22-14.77-8.93-29.69-7.21-44.15,3-23.18,19.41-44.06,37.76-55.27,20.38-12.44,44.61-15.62,68-13.27,1.79.18,3.58.39,5.36.63A92.8,92.8,0,0,1,176,53.91c11.42,4.68,21.44,12.57,31.51,20.06,12.36,9.2,25.11,18,39,24,19,8.17,39.63,10.88,59.35,16.81s39.62,16,51,34.5a71.33,71.33,0,0,1,7,15.59c4.09,12.68,5.4,26.61,6.44,40.13C371.31,217,371.91,230.08,365.93,240.31Z" transform="translate(-38 -46.92)" fill="#6b9408" opacity="0.18" style="isolation: isolate;"></path><path d="M365.93,240.31c-6.34,10.86-18.47,15.77-30,18.87-29.57,7.93-58.13,4.47-87.93,5.26-12.92.34-24.75,7.9-34.85,16.65s-19.2,19-30.27,26.22c-23.75,15.53-53.13,15.44-80.84,14.88-7.17-.13-14.43-.29-21.39-2.18a42.9,42.9,0,0,1-9.48-3.86,53.14,53.14,0,0,1-20.43-20.78,56.72,56.72,0,0,1-6.53-19c-.07-.43-.13-.86-.18-1.28s-.08-.61-.12-.92a3.13,3.13,0,0,0-.07-.62,2.91,2.91,0,0,1-.07-.74c0-.25-.08-.77-.1-1.16s-.08-1-.11-1.56h0c0-.5-.05-1-.06-1.51v-4.74a17.5,17.5,0,0,1,.09-2.17,1.61,1.61,0,0,0,0-.31c0-.62.08-1.24.13-1.86v-.56a11.89,11.89,0,0,1,.11-1.2c.07-.76.16-1.52.25-2.28h0c.08-.58.15-1.17.23-1.74l.06-.46c.08-.58.17-1.14.26-1.72s.21-1.3.32-2,.23-1.3.35-2c.23-1.31.49-2.62.77-3.92.14-.66.27-1.31.41-2l.44-2c.15-.66.29-1.31.45-2,.64-2.8,1.33-5.59,2-8.39.28-1.13.55-2.26.83-3.39.1-.4.19-.81.29-1.2l.54-2.31c.37-1.52.72-3.06,1.06-4.6.17-.76.33-1.53.49-2.3s.31-1.54.47-2.3l.32-1.68.24-1.35q.54-3,.92-5.92c.08-.58.15-1.16.22-1.74a2.16,2.16,0,0,0,0-.36,9.91,9.91,0,0,1,.12-1.08c.05-.52.1-1,.14-1.54a2.54,2.54,0,0,0,0-.39c0-.57.09-1.14.13-1.72v-.67c0-.5.06-1,.07-1.52q.13-3.39,0-6.79a6.72,6.72,0,0,1,1-.16,57.89,57.89,0,0,0,13.48-.15,7,7,0,0,0,1.12-.15h0a58.28,58.28,0,0,0,17.74-5.56c2.6-1.31,5.18-2.83,8.06-3.15s5.86.62,8.8.42c5.09-.33,9.2-3.93,13.74-6.34.55-.3,1.1-.58,1.67-.83a3.94,3.94,0,0,1,1-.34,1.57,1.57,0,0,1,.61,0c1.17.16,1.76,1.46,2.67,2.2a6.55,6.55,0,0,0,3.88,1c2.78.12,5.57.22,8.37.28q6.69.16,13.39.08c1.69,0,3.38,0,5.07-.09a131.76,131.76,0,0,0,24.33-2.64c4.64-1,9.92-2.29,13.81.43a16.2,16.2,0,0,0,2.65,1.86c1.89.8,4,.06,6-.44,10-2.5,21.28,1.67,30.43-3l.75,2.11,2-.29c22-3.23,41.7-4.48,63.92-5.56,4.54,3,10.44,2.51,15.85,1.92l48.45-5.1c4.09,12.68,5.4,26.61,6.44,40.13C371.31,217,371.91,230.08,365.93,240.31Z" transform="translate(-38 -46.92)" fill="#6b9408" opacity="0.48" style="isolation: isolate;"></path><path d="M287,250.81l63.39-8.51a5.63,5.63,0,0,0,3.27-1.18,13.41,13.41,0,0,0,1.48-2.32c1.48-2.16,4.35-2.72,6.87-3.46s5.3-2.37,5.38-5c-16.43-.69-32.63,9.78-48.56,5.73-3-.78-6.09-2.09-9.21-1.69-3.95.5-7,3.59-10.67,5.17a29.42,29.42,0,0,1-7.74,1.78c-4,.55-21.09.21-21.53,5.89C269.15,253.37,283.63,250.81,287,250.81Z" transform="translate(-38 -46.92)" fill="url(#linear-gradient)"></path><path d="M181.5,225.94l63.38-8.5a5.63,5.63,0,0,0,3.27-1.18,12.9,12.9,0,0,0,1.49-2.32c1.47-2.17,4.35-2.72,6.86-3.47s5.3-2.37,5.38-5c-16.43-.69-32.62,9.79-48.56,5.73-3-.77-6.09-2.08-9.21-1.68-4,.5-7,3.58-10.67,5.16a29,29,0,0,1-7.74,1.79c-4,.55-21.09.2-21.53,5.88C163.7,228.5,178.17,225.94,181.5,225.94Z" transform="translate(-38 -46.92)" fill="url(#linear-gradient-2)"></path><path d="M195.27,129.83c-2.45,2.15-4.77,4.84-8.14,4.75-2.64-.07-5.37.45-8.06.4a48.57,48.57,0,0,1-8.5-.91,2.07,2.07,0,0,0-1.72.16c-.46.38-.49,1-.64,1.61s-.68,1.19-1.22,1-.54-1-1-1.42a1.29,1.29,0,0,0-1.59.11c-.46.35-.79.85-1.25,1.2a2.57,2.57,0,0,1-3.67-3.51c1-1.43,3.05-1.47,4.75-1.85,2.53-.57,4.74-2.16,7.26-2.75,2-.47,4.13-.28,6.17-.56,3.42-.47,6.47-2.19,9.72-3.22,1.2-.38,2.44-.34,3.62-.67,1.37-.38,2.51-1.49,3.8-2.09C200.51,119.44,195.27,129.83,195.27,129.83Z" transform="translate(-38 -46.92)" fill="#fcb787"></path><path d="M187.6,215.8c.57,4-2.57,5.77-4.78,6.2s-3.72-1-6.75.73a10.52,10.52,0,0,1-10.7,0c-3.38-2.13-1.68-3.45,1.91-4.59a90.65,90.65,0,0,0,12-4.79c3.31-1.75,3.19-2.14,4.66-1.44C187.09,213.45,187,211.78,187.6,215.8Z" transform="translate(-38 -46.92)" fill="#505365"></path><path d="M200.16,157.91c-.93-.15-22.12,13-24.43,16s.83,6.25,2.18,18.68,1.68,20.62,2.07,22.18,4.78,1.59,5.52-.08.8-7.36,1.55-13.43c1.06-8.67,2.94-6.71-2.33-20.44l19.46-8.53Z" transform="translate(-38 -46.92)" fill="#fcb787"></path><path d="M180,169a1.91,1.91,0,0,0-.68.95,1.85,1.85,0,0,0,.42,1.3A54.76,54.76,0,0,0,190.88,184l11.22-9.48a7.26,7.26,0,0,0,1.54-1.59,7.53,7.53,0,0,0,.91-3c.75-5,1.39-10.37-.88-14.88a3.58,3.58,0,0,0-1-1.34,3.5,3.5,0,0,0-3.28-.18c-3.52,1.3-6.32,4.23-9.17,6.59Q185,164.38,180,169Z" transform="translate(-38 -46.92)" fill="#505365"></path><path d="M246.34,193.56c2.62-1,4.72-1.19,6.62,0s2,3.29,5.43,4.08,5.85,4,6.85,7.83-1.14,3.67-4.54,2.05-8-4.42-11-5.26c-3.61-1-5.53-2.83-6.13-4.34C242.27,194.68,246.34,193.56,246.34,193.56Z" transform="translate(-38 -46.92)" fill="#505365"></path><path d="M203.86,168.25c-.37.87,2.79,23,5.13,26s10.24,1.67,22.62,3.33S246,200,247.58,200s2.29-3.49,1.18-4.94-4.06-2-9.81-4.08c-8.56-3.12-5.8-5-20.4-3.22l-.46-22.23Z" transform="translate(-38 -46.92)" fill="#fcb787"></path><path d="M198.85,154.14c2,5.45,6,25.44,6.15,28.39s15.18.08,16.7-.83c0,0-2.34-7.57-1.33-10.75s4.85-14.08.19-16.81Z" transform="translate(-38 -46.92)" fill="#505365"></path><path d="M228.8,114.59c3.34,1.41,13.5,6.67,15.17,6.8s4.11-.13,11.31,3.6,9.33,6.39,12,6.39,9.82,3.75,10.16,6c.14.89-1.16.17-2.69,0-2.29-.24-5.68-2.13-6.19-2.18-1.61-.16,2.59,3.59,1.56,3.59s-2.31-1.14-4.54-2.68-1.9-3-8.79-4.41c-10.54-2.11-11.69-4.66-13.06-5s-17-2.74-17-2.74Z" transform="translate(-38 -46.92)" fill="#fcb787"></path><path d="M211.25,107.3a4.4,4.4,0,0,0-.22,3.23c-2.13,2.94-6.43,7.86-10,6.11,0-1.26-.14-2.51-.3-3.76C200,108.16,211.25,107.3,211.25,107.3Z" transform="translate(-38 -46.92)" fill="#fcb787" opacity="0.3" style="isolation: isolate;"></path><path d="M202.29,88.64h-.12a33.6,33.6,0,0,0-3.45.9c-1.73.56-3.6,1.46-4.13,3.2a5.78,5.78,0,0,0-.16,1.9,58.81,58.81,0,0,0,1,9.07c.49,2.54,2.67,4.54,4.69,5.94a4.16,4.16,0,0,0,2.47.51c.71,0,1.66-.34,2.18.34a1.62,1.62,0,0,1-.05,1.73c-.3.54-.75,1-1.06,1.5a1.68,1.68,0,0,0-.14,1.74,2.08,2.08,0,0,0,1.87.65,8.61,8.61,0,0,0,4.59-1.39,5.7,5.7,0,0,0,2.54-4,1.94,1.94,0,0,0,0-.68,2,2,0,0,0-.2-.48,8.07,8.07,0,0,1-1.21-4c0-1.5.34-3,.45-4.46.26-3.13.06-7.06-2.15-9.51a12,12,0,0,0-3.29-2.31,6.3,6.3,0,0,0-2.05-.82A5.61,5.61,0,0,0,202.29,88.64Z" transform="translate(-38 -46.92)" fill="#fcb787"></path><g opacity="0.3"><path d="M203,165a2.07,2.07,0,0,1,.06-.61C203.18,164.18,203.15,164.45,203,165Z" transform="translate(-38 -46.92)" fill="#6b9408"></path><path d="M203.83,174a78.56,78.56,0,0,1-10.49,6.3s-.53-.84-1.61-2.68l-.36-1.44,8.59-4.43c1.49-.77,2.71-5,3.08-6.71C203,167.19,203.83,173.94,203.83,174Z" transform="translate(-38 -46.92)" fill="#6b9408"></path></g><path d="M353.53,221.58a39,39,0,0,1-.62,7.07c-.66,3-.73,5.22-1.92,7.42s-.18,5.12,2.48,4.72,4.81-4,6-5.91,3-7.81,3.35-8.82,1.77-5.11,1.28-6.26-5.59-2.26-7.37-2.69S353.53,221.58,353.53,221.58Z" transform="translate(-38 -46.92)" fill="#505365"></path><path d="M364.06,219.8a2.05,2.05,0,0,0-.87-.7,23.11,23.11,0,0,1-1.36,5.43c-.38,1-2.2,6.9-3.35,8.81s-3.31,5.51-6,5.92a2.46,2.46,0,0,1-1.91-.46,2.42,2.42,0,0,0,2.76,2l.11,0c2.65-.4,4.81-4,6-5.91s3-7.81,3.35-8.82S364.55,221,364.06,219.8Z" transform="translate(-38 -46.92)" fill="#505365" opacity="0.5" style="isolation: isolate;"></path><path d="M286.29,239.41a38.73,38.73,0,0,1-6.2,3.45c-2.89,1.16-4.73,2.32-7.22,2.57s-4.34,2.72-2.52,4.7,6,1.74,8.24,1.62,8.13-1.91,9.18-2.17,5.22-1.4,5.9-2.45-.37-6-1-7.67S286.29,239.41,286.29,239.41Z" transform="translate(-38 -46.92)" fill="#505365"></path><path d="M293.7,244.78c-.7,1.22-5,2.56-6.1,2.86s-7.19,2.39-9.49,2.53-6.56.4-8.46-1.83a2.44,2.44,0,0,0,.7,1.79c1.82,2,6,1.74,8.24,1.62s8.13-1.91,9.18-2.17,5.22-1.4,5.9-2.45a5.07,5.07,0,0,0,.11-2.65A1.11,1.11,0,0,1,293.7,244.78Z" transform="translate(-38 -46.92)" fill="#505365" opacity="0.5" style="isolation: isolate;"></path><path d="M356.85,218c-3.54-1.59-8.72-5.3-14.34-8.87-5.26-3.33-13.33-4.15-15-5.07s-12.92-26.54-13.31-26.93-20.08,3.77-20.08,3.77c1.57,2.52,20.76,24.82,23,27.06s2.46,4.21,6.26,5,30.82,10.23,31.62,10.5S358.56,218.72,356.85,218Z" transform="translate(-38 -46.92)" fill="#fcb787"></path><path d="M294.09,180.85s15.76,27.93,16.55,27.68,11.58-5.7,13.69-9.87l-10.16-21.58Z" transform="translate(-38 -46.92)" fill="#a2b650"></path><path d="M294.09,180.85s15.76,27.93,16.55,27.68,11.58-5.7,13.69-9.87l-10.16-21.58Z" transform="translate(-38 -46.92)" fill="#505365"></path><path d="M316.57,200a6,6,0,0,0-.39-1.91,7.15,7.15,0,0,0-2.11-2.43,2.42,2.42,0,0,0-1.8-.8c-1,.15-1.37,1.38-2,2.14-1.21,1.34-3.45,1.12-4.88,2.22,1.58-2.63,3-5.34,4.38-8.1a19.07,19.07,0,0,1,1.66-3,16.57,16.57,0,0,1,2.57-2.59l3.29-2.86a.42.42,0,0,1,.14-.09c.15,0,.24.16.28.31a26.48,26.48,0,0,0,1.1,4.2c.66,1.48,1.84,2.67,2.56,4.11,1,1.93,1.08,4.26,2.39,6a2.22,2.22,0,0,1,.53.93,1.71,1.71,0,0,1-.58,1.32,33.05,33.05,0,0,1-6.31,5.18,2.31,2.31,0,0,1-1,.47,9,9,0,0,1,.22-2.48A19.1,19.1,0,0,0,316.57,200Z" transform="translate(-38 -46.92)" fill="url(#linear-gradient-3)"></path><path d="M320.61,173.06c1.46,2.52,2.84,6.17-.85,9.68s-9.37,10.81-22.39,19.37a49.46,49.46,0,0,1-1.28,16.75,149.55,149.55,0,0,0-3.43,20.6c0,1.18-5.06,1-6.37-.05,0,0,.92-30.35.53-35.1-.61-7.33-.61-7.33,4.66-11.88s13.1-14,13.1-14Z" transform="translate(-38 -46.92)" fill="#fcb787"></path><path d="M288.45,194s5.64,7.29,14.17,9.72c0,0,7.93-10.69,10.89-13s13.64-9.23,7.1-17.74l-17.93,4.17Z" transform="translate(-38 -46.92)" fill="#505365"></path><path d="M347,156.43c-3-2.64-4.16-2-6.63-5.37s-10.9-14.48-12.86-14.88-15.81,1.2-20.22.91a18.5,18.5,0,0,0-9.66,2.3,4.81,4.81,0,0,1-3.13.54c-5.34,1.08-7.25.3-12.4,6A112.46,112.46,0,0,0,273,158c-1.71,2.54-2.66,3.4-4.87.69a41.5,41.5,0,0,1-4.53-6.83,2.07,2.07,0,0,1-.32-1c0-.52.48-.9.75-1.34.81-1.29.25-3-.33-4.37a4.6,4.6,0,0,0-1.75-2.49,3.69,3.69,0,0,0-3,.08,4.92,4.92,0,0,0-2.81,2.51c-.81,2,.27,4.13,1.23,6a62.64,62.64,0,0,1,3.84,9.42c1,3.13,1.8,6.48,4,8.89a4.75,4.75,0,0,0,2.88,1.68,5.24,5.24,0,0,0,3.74-1.53c2.47-2.11,4.13-5,6-7.65a21.92,21.92,0,0,1,3.81-4.4c1.13-.94,2.84-1.43,3.71-2.6a38.8,38.8,0,0,0,4.14,14c3.49,6.82,2.55,10.74,3.07,11.14s4.7,2.13,10.21.59,12.58-2,15.34-2.91a13.57,13.57,0,0,0,5.13-3.37c.39-.39-4-7.89-7.13-11.44s-6.57-16.28-7.09-17.2c0,0,13.89-1.75,15.73-2.26a19.9,19.9,0,0,0,5.27,5c3.78,2.64,7.24,4.2,8.28,5.65s.09,5,1.78,7.23,1.13,0,3.47,2.35c.93.93,2.75.42,4.72-1.54S350,159.07,347,156.43Z" transform="translate(-38 -46.92)" fill="#fcb787"></path><path d="M292.66,239.46a161.7,161.7,0,0,1,2.5-16.66h0c-6.16,0-8.41-1.27-8.41-1.27h0c-.19,8.94-.46,17.88-.46,17.88C287.6,240.47,292.65,240.64,292.66,239.46Z" transform="translate(-38 -46.92)" fill="#f1f1f1"></path><path d="M295.16,222.8h-1.33c-1.32,6.72-2.23,14.44-2.24,15.36s-3.32,1-5.27.45v.84c1.31,1.06,6.36,1.23,6.37.05a161.7,161.7,0,0,1,2.5-16.66Z" transform="translate(-38 -46.92)" fill="#e5e6e7"></path><path d="M337.4,217.42h0c8.3,2.8,17.14,5.88,17.59,6,.78.26,3.57-4.74,1.86-5.51-3.54-1.59-8.72-5.3-14.34-8.87C342.51,209.08,341.44,216.55,337.4,217.42Z" transform="translate(-38 -46.92)" fill="#f1f1f1"></path><path d="M356.85,218c-3.54-1.59-8.72-5.3-14.34-8.87,0,0-.05.3-.15.78,5.15,3.32,9.85,6.62,13.13,8.09,1.42.64-.26,4.18-1.32,5.22l.82.29C355.77,223.72,358.56,218.72,356.85,218Z" transform="translate(-38 -46.92)" fill="#e5e6e7"></path><path d="M323.22,174.52a13.65,13.65,0,0,1-5.13,3.37,45.72,45.72,0,0,1-5.92,1.11,83.67,83.67,0,0,0-9.42,1.8c-5.51,1.53-9.69-.19-10.21-.59s.42-4.31-3.07-11.15a93.45,93.45,0,0,1-4.9-11.58h0c-.3-.71-3.78,3.26-4.62,4.24l-.19.21-.18-.12a16.35,16.35,0,0,1-3.1-2.71l-.15-.19c-.05-.06-.1-.13-.16-.19l-.33-.41a8.76,8.76,0,0,1-1.78-3.63A84.52,84.52,0,0,1,281.4,146a15.26,15.26,0,0,1,8-5.17c1.45-.33,3-.45,4.39-.83a18.92,18.92,0,0,0,4.46-2.32c1.52-.87,3.39-.83,5.05-1.4a7.07,7.07,0,0,1,1.55-.46A14.08,14.08,0,0,1,307,136c1.54.08,3-.56,4.55-.78,2.3-.33,4.69.3,7-.23.52-.13,1.2-.26,1.49.18s0,.85,0,1.27a9.86,9.86,0,0,0,.32,1.3,21.72,21.72,0,0,1,.45,3c0,.41.06.81.08,1.22.06,1.32.06,2.65,0,4a1.44,1.44,0,0,1-.24.9,1.63,1.63,0,0,1-.88.43c-2,.48-6.76.48-7.17,3.06a6.11,6.11,0,0,0,.12,2.13,36.72,36.72,0,0,0,3.84,10.34c.44.82.91,1.64,1.39,2.46S324.07,173.67,323.22,174.52Z" transform="translate(-38 -46.92)" fill="#6b9408"></path><path d="M296.79,126c-.34,2.25,2,10.35,3,13.08,0,0-6.1,5.3-9.35,4.75,0,0-.15-.1,0-1.22s.25-3.92-.69-4.69,5.55-9.23,5.55-9.23Z" transform="translate(-38 -46.92)" fill="#fcb787"></path><path d="M296.24,134.27l.2-1.58a25.11,25.11,0,0,1,.68-2.75l-1,1.56s-6.72,5.25-6,5.85a3.09,3.09,0,0,1,.6,2.14h0S293.68,140.06,296.24,134.27Z" transform="translate(-38 -46.92)" fill="#fcb787" opacity="0.3" style="isolation: isolate;"></path><path d="M297.93,128.12v.12l-.19,1.16a2.5,2.5,0,0,1-.46,1.23c-.26.3-.66.44-.94.72A15.43,15.43,0,0,0,295,133.5a11.44,11.44,0,0,1-1.74,1.94c-1.06.95-2.16,2.39-3.54,2.9-.59.21-1.21.43-1.81.62-1.61.53-1.78-.8-2.38-1.86a21.61,21.61,0,0,1-1.82-4.12,20.33,20.33,0,0,1-.77-8.8,7.11,7.11,0,0,1,.31-1.44,7.21,7.21,0,0,1,9.38-4l.5.23c2.41,1.37,3.49,4.31,3.63,7a.69.69,0,0,1,.77.16A2.19,2.19,0,0,1,297.93,128.12Z" transform="translate(-38 -46.92)" fill="#fcb787"></path><path d="M236,116.51a43.91,43.91,0,0,1-4.17,10.16.54.54,0,0,1-.07.13,2,2,0,0,1-.74.85c-.82.38-1.69-.47-2.59-.61-1.5-.22-2.49,1.5-2.9,3-1.83,6.73-.64,13.87-.63,20.86,0,1.11-.15,2.44-1.13,2.94a3.25,3.25,0,0,1-1.69.21,26.57,26.57,0,0,0-7.74.82c-.41.1-.82.22-1.24.35a42.34,42.34,0,0,1-6.34,1.69c-4.46.59-8.95-.89-13-2.86q1.11-4.67,2-9.37a13,13,0,0,0,.37-3.35c0-1-.31-1.9-.38-2.86-.16-2.53,1-5.26-.19-7.49a15.27,15.27,0,0,0-1.18,1c-.06,0-4.83-7.52-4.34-8.65.36-.86,2.77-2.11,3.49-3a16.94,16.94,0,0,0,1.75-2.84,10.86,10.86,0,0,1,4.58-4.4,15,15,0,0,1,2.73-1.17c.36-.11.73-.11,1.1-.21l1.41-.42a4.49,4.49,0,0,0-.73,2,2.51,2.51,0,0,0,.33,1.61c.24.35.51.33.92.3a7.27,7.27,0,0,0,2.67-.73,7.71,7.71,0,0,0,3.75-4c.06-.16.12-.32.17-.48s.09-.27.22-.31a.42.42,0,0,1,.27,0c3.94,1.1,7.71,2.62,11.68,3.63C225.4,113.5,236.13,116,236,116.51Z" transform="translate(-38 -46.92)" fill="#6b9408"></path><path d="M148.44,228.27c0,1.26-5.37,2.29-12,2.29s-12-1-12-2.29,5.37-2.3,12-2.3S148.44,227,148.44,228.27Z" transform="translate(-38 -46.92)" fill="url(#linear-gradient-4)"></path><path d="M146,228.73A11.73,11.73,0,1,1,157.69,217v0A11.71,11.71,0,0,1,146,228.73Z" transform="translate(-38 -46.92)" fill="#f1f1f1"></path><path d="M136.51,212.16v-1.89a11.47,11.47,0,0,0-1.9,4.44l1.82-2.34,3.28-.31v-.19Z" transform="translate(-38 -46.92)" fill="#403d3d"></path><path d="M153.77,208.25l-.24,3.12-4.68-.05h-.12l-4.19-2.55v-.09l.49-2.54h-.19l-.5,2.6h0L139.7,212l1.76,4.45v.1l-2.26,5.38h0l-3.08-.43.09-.05-1.74-3.51a5.32,5.32,0,0,0,.06.56l1.5,3h.09v1.58a11.81,11.81,0,0,0,5.21,4.63h.22l.79-1.73h0l6-.09v-.2l-6,.1h-.09l-2.91-3.72V222l2.25-5.36h5.17l.15.08,3.23,4.91h0l-1.83,4.21,2.65,1.71.29-.05a11.65,11.65,0,0,0,4.58-4.2l-.53-2.25h.07l.64-6h0l1.48.37A11.72,11.72,0,0,0,153.77,208.25Zm2.11,6.69-.64,5.88-.33.12-4.53.53-.07-.05-3.23-4.92h0l1.79-4.94h4.63l.18.11,2.24,3.21Z" transform="translate(-38 -46.92)" fill="#403d3d"></path><path d="M146,205.28a11.58,11.58,0,0,0-1.95.17l.8.69,1.83-.83C146.49,205.3,146.27,205.28,146,205.28Z" transform="translate(-38 -46.92)" fill="#403d3d"></path><path d="M147.64,225.93a10.55,10.55,0,0,1-3.44-20.5,11.72,11.72,0,1,0,13.33,13.41A10.5,10.5,0,0,1,147.64,225.93Z" transform="translate(-38 -46.92)" fill="#e5e6e7"></path><path d="M194.07,90.81a7.15,7.15,0,0,1,2.73-5.56,10.35,10.35,0,0,1,5.94-2.14l-.22.35a6.5,6.5,0,0,1,3.13-.61,22.19,22.19,0,0,1,7,1.11,17.13,17.13,0,0,0-2.77,1.4A7.1,7.1,0,0,0,212,86.49,3.39,3.39,0,0,1,213.88,88l-.8.06a5.18,5.18,0,0,0,3.11,2.41,4.2,4.2,0,0,1-1.94,1.27,3.1,3.1,0,0,0,1.1.87c-.36.41-.95.56-1.34,1a2.7,2.7,0,0,0-.59,1.09l-2.1,5.79a8.27,8.27,0,0,0-.51-3.34c-.22-.72-.57-1.56-1.32-1.67a1.38,1.38,0,0,0-1.23.62,4,4,0,0,0-.52,1.35A7.53,7.53,0,0,0,205.11,92a2.93,2.93,0,0,0-1.2-.68,3.06,3.06,0,0,0-1,0,6.89,6.89,0,0,0-3.3,1.18c-.73.51-1.46,1.19-2.35,1.11s-1.42-.68-2.15-.5-.81.2-.94-.44A10.39,10.39,0,0,1,194.07,90.81Z" transform="translate(-38 -46.92)" fill="#505365"></path><path d="M278.89,116.87c-.46.87-.92,2-.39,2.8s1.84.87,2.89.75c-.55.47,0,1.36.63,1.73a5.55,5.55,0,0,0,5.7,0c.73.85,2.09.36,3.21.44a3.82,3.82,0,0,1,2.78,1.78A11.43,11.43,0,0,1,295,127.5a1.71,1.71,0,0,0,1.39-1.78,3.77,3.77,0,0,0,2.09.6l1.27-5.8a4.7,4.7,0,0,0,.16-1.75c-.22-1.32-1.47-2.18-2.61-2.88a1.66,1.66,0,0,0,0-1.86,6.16,6.16,0,0,0-1.41-1.38,11.12,11.12,0,0,0-3.39-2.36,2.69,2.69,0,0,0-3.4,1.43C284.71,109.9,280.85,113.14,278.89,116.87Z" transform="translate(-38 -46.92)" fill="#505365"></path><path d="M177.74,191.09c2.08.5,3.51.21,5.65.38a10.61,10.61,0,0,0,4.65-.38,15.17,15.17,0,0,1,0,4.36c-.38,2-1.46,19.14-2.42,20a4.87,4.87,0,0,1-5.73-.25Z" transform="translate(-38 -46.92)" fill="#fff"></path><path d="M222.37,187.36s.48,7.32-2,9.22l28,4.1s2.67-3.35.32-5.59-3.44-1.88-3.44-1.88S234.61,189,233,188.09C229.31,185.94,222.37,187.36,222.37,187.36Z" transform="translate(-38 -46.92)" fill="#fff"></path><path d="M231.83,126.67a.54.54,0,0,1-.07.13,2,2,0,0,1-.74.85c-.82.38-1.69-.47-2.59-.61-1.5-.22-2.49,1.5-2.9,3-1.83,6.73-.64,13.87-.63,20.86,0,1.11-.15,2.44-1.13,2.94a3.25,3.25,0,0,1-1.69.21,26.57,26.57,0,0,0-7.74.82c-.41.1-.82.22-1.24.35a14.22,14.22,0,0,0-6.42,1.57,16.34,16.34,0,0,1,5-5.52c1.68-1.16,3.69-2.1,4.64-3.91,1-2,.54-4.34.73-6.56s1.19-4.59,1.48-7a3.92,3.92,0,0,0-.09-1.8,4.39,4.39,0,0,0-1.3-1.74c-1.93-1.77-4.34-3.35-5-5.87a9.71,9.71,0,0,0,9.28,1.25c3-1.22,6.45-1.69,9.44.2A3.68,3.68,0,0,1,231.83,126.67Z" transform="translate(-38 -46.92)" fill="url(#linear-gradient-5)"></path><path d="M323.22,174.52a13.65,13.65,0,0,1-5.13,3.37,45.72,45.72,0,0,1-5.92,1.11,11.51,11.51,0,0,0-3.75.14c1.82-.83,3.64-1.68,5.44-2.55a1.57,1.57,0,0,0,.85-.69,1.92,1.92,0,0,0,.11-.58c.09-1.48.17-3,.26-4.43a1.63,1.63,0,0,0-.22-1.18,1.74,1.74,0,0,0-.63-.4l-2.63-1.11a17.85,17.85,0,0,0,.81-5.13,4.6,4.6,0,0,0-.48-2.42c-.3-.51-.77-.91-1.09-1.41a9,9,0,0,1-.94-3.25c-.71-3.4-3.12-6.49-2.79-10l2.62.65a5.21,5.21,0,0,0,2.54.18,9.58,9.58,0,0,0,2-1.12c1.18-.69,2.56-.93,3.8-1.52a4.61,4.61,0,0,0,1.5-1.13c.3-.35.51-1.07,1-1.15a.44.44,0,0,1,.32,0c.06,1.32.06,2.65,0,4a1.44,1.44,0,0,1-.24.9,1.63,1.63,0,0,1-.88.43c-2,.48-6.76.48-7.17,3.06a6.11,6.11,0,0,0,.12,2.13,36.72,36.72,0,0,0,3.84,10.34c.44.82.91,1.64,1.39,2.46S324.07,173.67,323.22,174.52Z" transform="translate(-38 -46.92)" fill="url(#linear-gradient-6)"></path><path d="M284.56,157.47c-.3-.71-3.78,3.26-4.62,4.24h-.05l-.32.08a16.35,16.35,0,0,1-3.1-2.71l-.15-.19c-.05-.06-.1-.13-.16-.19l-.33-.41a1.23,1.23,0,0,1-.29-.92,8.35,8.35,0,0,0,3.25-.49,3.7,3.7,0,0,0,.93-.47c1.44-1.11,1.16-3.73,2.77-4.57a1.82,1.82,0,0,1,1,1.15,14.81,14.81,0,0,1,.34,1.53C284,155.5,284.8,156.45,284.56,157.47Z" transform="translate(-38 -46.92)" fill="url(#linear-gradient-7)"></path><path d="M108,188.4a5.29,5.29,0,0,0,2.63,1.83l.92-2.15c-.18.43,1.1.3,1.29.11.43-.44.46-2.07.64-2.68a6.67,6.67,0,0,0,1.4,2.05l1.59-2.21c.1-.13.24-.28.4-.23a.35.35,0,0,1,.18.2l1.18,2.14.93-.49.31,1.52a5.63,5.63,0,0,1,1.1-.72,5.8,5.8,0,0,0,.69,1.36l1.08-1.19a5.26,5.26,0,0,0,1.78,1.43,4,4,0,0,1,.63-1.43,2.59,2.59,0,0,0,1,.73l.58-1.19a1,1,0,0,0,.56.29c.35-.17.08-.82.41-1a.47.47,0,0,1,.33,0,27.45,27.45,0,0,0,7.46-.36,27.28,27.28,0,0,1-4.67.7,3.63,3.63,0,0,0-1.61.41,1.24,1.24,0,0,0-.61,1.42,2.57,2.57,0,0,0-1-.66l-.39,1c-.35-.38-1,0-1.35.31l-1.78,1.59c-.27-.46-.18-1.18-.66-1.42a.77.77,0,0,0-.91.27,2.39,2.39,0,0,0-.38,1,2.42,2.42,0,0,0-1.29-1c-.83-.18-1.55.65-2.53.49-.2,0-2.68-1-2-1.47l-1.42,1.15a.6.6,0,0,0-.75-.37l-.1,0a.69.69,0,0,1,.11,1,.72.72,0,0,1-.41.24,9.52,9.52,0,0,1-4.54.7,2.11,2.11,0,0,1-.35,1.24c-.45-.78-1.62-.56-2.46-.23-1.48.6-3,1.18-4.47,1.74A14.66,14.66,0,0,0,108,188.4Z" transform="translate(-38 -46.92)" fill="url(#linear-gradient-8)"></path><path d="M145.63,185.5a5.29,5.29,0,0,0,2.63,1.83l.92-2.15c-.18.43,1.1.3,1.29.11.43-.44.46-2.07.64-2.68a6.51,6.51,0,0,0,1.4,2l1.59-2.21c.1-.13.24-.28.4-.23a.35.35,0,0,1,.18.2l1.18,2.14.93-.49.31,1.53a4.44,4.44,0,0,1,1.1-.72,5.74,5.74,0,0,0,.69,1.35L160,185a5,5,0,0,0,1.78,1.43,3.71,3.71,0,0,1,.63-1.42,2.76,2.76,0,0,0,1,.72l.58-1.19a.85.85,0,0,0,.56.29c.35-.17.08-.82.41-1a.47.47,0,0,1,.33,0,27.45,27.45,0,0,0,7.46-.36,27.28,27.28,0,0,1-4.67.7,3.63,3.63,0,0,0-1.61.41,1.24,1.24,0,0,0-.61,1.42,2.69,2.69,0,0,0-1-.66l-.39,1c-.35-.38-1,0-1.35.31l-1.78,1.59c-.27-.46-.18-1.18-.66-1.42a.78.78,0,0,0-.92.27,2.38,2.38,0,0,0-.37,1,2.42,2.42,0,0,0-1.29-1c-.83-.18-1.55.65-2.53.5-.2,0-2.68-1-2-1.47l-1.42,1.15a.6.6,0,0,0-.76-.37l-.09,0a.69.69,0,0,1,.11,1,.72.72,0,0,1-.41.24,9.52,9.52,0,0,1-4.54.7,2.11,2.11,0,0,1-.35,1.24c-.45-.78-1.62-.56-2.46-.23q-2.23.9-4.47,1.74A14.62,14.62,0,0,0,145.63,185.5Z" transform="translate(-38 -46.92)" fill="url(#linear-gradient-9)"></path><path d="M74.37,207.22A5.29,5.29,0,0,0,77,209.05l.92-2.15c-.18.43,1.1.3,1.29.11.43-.43.46-2.06.64-2.68a6.51,6.51,0,0,0,1.4,2l1.59-2.21c.1-.13.24-.28.4-.23a.35.35,0,0,1,.18.2l1.18,2.14.93-.49.31,1.53a4.44,4.44,0,0,1,1.1-.72,5.74,5.74,0,0,0,.69,1.35l1.08-1.19a5,5,0,0,0,1.78,1.43,3.94,3.94,0,0,1,.63-1.42,2.76,2.76,0,0,0,1,.72l.58-1.19a.85.85,0,0,0,.56.29c.35-.17.08-.82.41-1a.47.47,0,0,1,.33,0,27.85,27.85,0,0,0,7.46-.35,28.29,28.29,0,0,1-4.67.69,3.63,3.63,0,0,0-1.61.41,1.24,1.24,0,0,0-.61,1.42,2.69,2.69,0,0,0-1-.66l-.39,1c-.35-.37-1,0-1.35.31L90.07,210c-.27-.47-.18-1.19-.66-1.43a.78.78,0,0,0-.92.27,2.38,2.38,0,0,0-.37,1,2.42,2.42,0,0,0-1.29-1c-.83-.18-1.55.65-2.53.5-.2,0-2.68-1-2-1.47L80.83,209a.6.6,0,0,0-.76-.37l-.09,0a.69.69,0,0,1,.11,1,.72.72,0,0,1-.41.24,9.52,9.52,0,0,1-4.54.7,2.11,2.11,0,0,1-.35,1.24c-.45-.78-1.62-.56-2.46-.23-1.48.6-3,1.18-4.47,1.74A14.66,14.66,0,0,0,74.37,207.22Z" transform="translate(-38 -46.92)" fill="url(#linear-gradient-10)"></path><path d="M236.46,177.74a5.24,5.24,0,0,0,2.63,1.83l.92-2.15c-.18.43,1.1.3,1.29.11.43-.44.46-2.07.64-2.68a6.67,6.67,0,0,0,1.4,2.05l1.59-2.21c.1-.13.24-.28.39-.23s.14.12.19.2l1.18,2.14.93-.49.31,1.52a4.75,4.75,0,0,1,1.1-.72,6.18,6.18,0,0,0,.68,1.36l1.09-1.19a5,5,0,0,0,1.78,1.43,3.71,3.71,0,0,1,.63-1.42,2.76,2.76,0,0,0,1,.72l.58-1.19a.85.85,0,0,0,.56.29c.34-.17.08-.82.4-1a.5.5,0,0,1,.34,0,27.45,27.45,0,0,0,7.46-.36,27.4,27.4,0,0,1-4.68.7,3.55,3.55,0,0,0-1.6.41,1.26,1.26,0,0,0-.62,1.42,2.57,2.57,0,0,0-1-.66l-.39,1c-.35-.38-1,0-1.35.31l-1.78,1.59c-.27-.46-.18-1.18-.66-1.42a.78.78,0,0,0-.92.27,2.38,2.38,0,0,0-.37,1,2.42,2.42,0,0,0-1.29-1c-.83-.18-1.56.65-2.54.5-.19,0-2.67-1-2-1.48l-1.42,1.15a.6.6,0,0,0-.77-.36l-.09,0a.69.69,0,0,1,.11,1,.72.72,0,0,1-.41.24,9.26,9.26,0,0,1-4.53.7,2.11,2.11,0,0,1-.35,1.24c-.45-.78-1.62-.56-2.46-.23q-2.24.9-4.47,1.74A14.7,14.7,0,0,0,236.46,177.74Z" transform="translate(-38 -46.92)" fill="url(#linear-gradient-11)"></path><path d="M236.46,233.57a5.14,5.14,0,0,0,2.63,1.83l.92-2.14c-.18.42,1.1.29,1.29.11.43-.44.46-2.07.64-2.69a6.6,6.6,0,0,0,1.4,2.06l1.59-2.21c.1-.14.24-.29.39-.23s.14.12.19.2l1.18,2.14.93-.5.31,1.53A4.79,4.79,0,0,1,249,233a6.11,6.11,0,0,0,.68,1.35l1.09-1.18a5.12,5.12,0,0,0,1.78,1.42,3.71,3.71,0,0,1,.63-1.42,2.47,2.47,0,0,0,1,.72l.58-1.18a.84.84,0,0,0,.56.28c.34-.16.08-.81.4-1a.5.5,0,0,1,.34,0,27.45,27.45,0,0,0,7.46-.36,28.41,28.41,0,0,1-4.68.69,3.87,3.87,0,0,0-1.6.41,1.28,1.28,0,0,0-.62,1.42,2.82,2.82,0,0,0-1-.66l-.39,1c-.35-.38-1,0-1.35.3l-1.78,1.6c-.27-.47-.18-1.19-.66-1.43a.8.8,0,0,0-.92.28,2.51,2.51,0,0,0-.37.95,2.51,2.51,0,0,0-1.29-1c-.83-.18-1.56.65-2.54.5-.19,0-2.67-1-2-1.47l-1.42,1.15a.6.6,0,0,0-.77-.36l-.09,0a.67.67,0,0,1,.12.94.68.68,0,0,1-.42.25,9.37,9.37,0,0,1-4.53.71,2.06,2.06,0,0,1-.35,1.23c-.45-.78-1.62-.55-2.46-.22q-2.24.89-4.47,1.74A14.61,14.61,0,0,0,236.46,233.57Z" transform="translate(-38 -46.92)" fill="url(#linear-gradient-12)"></path><path d="M337.11,185.24a5.2,5.2,0,0,0,2.63,1.83l.92-2.14c-.18.42,1.11.29,1.29.11.43-.44.46-2.07.64-2.69a6.77,6.77,0,0,0,1.4,2.06l1.59-2.21c.1-.14.24-.29.4-.23s.14.12.19.2l1.17,2.14.93-.5.32,1.53a4.9,4.9,0,0,1,1.09-.72,6.87,6.87,0,0,0,.69,1.35l1.09-1.18a5,5,0,0,0,1.77,1.42,3.94,3.94,0,0,1,.63-1.42,2.47,2.47,0,0,0,1,.72l.57-1.18a.89.89,0,0,0,.57.28c.34-.16.07-.81.4-1a.47.47,0,0,1,.33,0,27.45,27.45,0,0,0,7.46-.36,28.29,28.29,0,0,1-4.67.69,3.78,3.78,0,0,0-1.61.42,1.26,1.26,0,0,0-.61,1.41,2.82,2.82,0,0,0-1-.66l-.39,1c-.35-.38-1,0-1.35.3l-1.77,1.6c-.27-.47-.18-1.19-.67-1.43a.79.79,0,0,0-.91.28,2.25,2.25,0,0,0-.37,1,2.53,2.53,0,0,0-1.3-1c-.82-.18-1.55.65-2.53.5-.2,0-2.68-1-2.05-1.47L343.58,187a.6.6,0,0,0-.77-.36l-.09,0a.69.69,0,0,1,.11,1,.72.72,0,0,1-.41.24,9.5,9.5,0,0,1-4.53.7,2.14,2.14,0,0,1-.36,1.23c-.45-.78-1.62-.55-2.46-.22q-2.22.89-4.47,1.74A14.58,14.58,0,0,0,337.11,185.24Z" transform="translate(-38 -46.92)" fill="url(#linear-gradient-13)"></path><path d="M103.42,295.35a5.77,5.77,0,0,1,1.5,1.9c.61,1.13.56,2.46,1.5,3.41,1.35,1.36,3.68.17,4.88,1.91.77,1.13.29,2.65-.27,3.89a8.32,8.32,0,0,1-1.23,2.12c-1.4,1.61-3.72,2.05-5.86,2a7.53,7.53,0,0,1-2.45-.35,9.31,9.31,0,0,1-1.42-.69l-2.23-1.23A14.51,14.51,0,0,1,93.31,305c-2.21-2.78-.76-6.39,1.1-9,1.72-2.4,4.26-2.59,6.93-1.69A6.77,6.77,0,0,1,103.42,295.35Z" transform="translate(-38 -46.92)" fill="#505365"></path><path d="M79.07,207.69c-2.4,2.64-5,6.65-1.48,11.8S86,234.82,99.38,248.4a60.81,60.81,0,0,0-2.76,20.36c.48,8.95-.91,24.11-1.2,25.52s5.8,2.5,7.63,1.57c0,0,6.7-36.53,8.39-42.1,2.61-8.62,2.61-8.62-2.51-15.41s-12.09-20.08-12.09-20.08Z" transform="translate(-38 -46.92)" fill="#fcb787"></path><path d="M112,241a3.2,3.2,0,0,1-.43.61c-1.34,1.51-4,2.75-5.73,3.67a34.78,34.78,0,0,1-6.51,2.59c-.64.19-6.43,1.76-6.68,1.2,0,0-6.73-14.83-9.69-18.31-3.16-3.71-6.76-7.59-7.78-12.53a10.12,10.12,0,0,1,1.61-8.11c2.3-3.27,6.65-3.49,10.3-4.5A16.46,16.46,0,0,1,90,205a24.64,24.64,0,0,1,5,.33c2.11.22,4.6.43,6.21,2,1.9,1.85,2.21,5.32,2.89,7.74A197.2,197.2,0,0,0,111.24,236C112,237.6,112.85,239.42,112,241Z" transform="translate(-38 -46.92)" fill="#505365"></path><path d="M156.48,178c-.39.91-1.64,1-2.62.83s-2.13-.38-2.86.29c-.49.43-.68,1.18-1.26,1.45s-1.37-.14-2-.43c-2.19-1-4.89-.24-6.77,1.11a72.87,72.87,0,0,1-6.66,4.18,15.41,15.41,0,0,1-3.94,1.79c-3,.74-6.09-.28-8.78-1.72-2.48-1.34-4.79-3.05-7.34-4.23-.21-.11-.41-.2-.63-.29-2.07-.87-7.41-2.34-8.33.58a15.68,15.68,0,0,0-.48,3.47,15.35,15.35,0,0,1-.22,1.79,50,50,0,0,1-1.35,5.39c-.25.83-.47,1.61-.65,2.36v.22a29.52,29.52,0,0,0-.82,5.91v.15a27.53,27.53,0,0,0,.18,4.06,3.12,3.12,0,0,1,0,1.29.11.11,0,0,1,0,.08l-.14.11-.15.13-.33.22L101,207l-.34.19-.15.08h0l-.67.32a17.57,17.57,0,0,1-4,1.27l-.44.08h0a20.35,20.35,0,0,1-4.34.28l-1.11-.08h-.15c-.43,0-.86-.08-1.29-.11H87.23L86,208.9c-.94,0-1.89-.05-2.84-.05H72a10.42,10.42,0,0,1-1.46-.13,13.26,13.26,0,0,1-2.48-.63,15.91,15.91,0,0,1-2.07-.92c-.3-.15-.58-.32-.83-.46l-.19-.12c-.51-.31-.9-.58-1.14-.75l-.17-.12c-.56-.39,3.19-10.34,6.21-15.27A12.49,12.49,0,0,0,71,188c2.3-6.42,3.5-18.74,3.88-19.8-.19.55-8.27.34-9,.37-1.91.07-3.82.14-5.73.18h-1c-1.28,0-5.26-.24-2.25,1.09.62.28,1.18,1.1.7,1.6a1.26,1.26,0,0,1-.85.29l-3.88.39c-.92-3.9-2-7.84-3.14-11.78,3.23-.62,6.58-.89,9.77-1.2h.13c5.12-.5,10.47-.69,15.49-1.89a22.62,22.62,0,0,1,12.12.75,5.74,5.74,0,0,0,3.88,0c6.67.19,8.81-1.15,16.21,4.72a106.42,106.42,0,0,1,9,8.11,24.7,24.7,0,0,0,3,2.5c.65.47,1.3.92,2,1.36,1,.68,2,1.35,3,2.09a4.14,4.14,0,0,0,1.18.7,4.35,4.35,0,0,0,1.76.09,59.07,59.07,0,0,0,10.31-1.91,58.1,58.1,0,0,0,8-2.85,11.07,11.07,0,0,1,4.73-1.35c2.48.1,4.52,2,5.75,4.19.06.09.11.19.17.29A2.4,2.4,0,0,1,156.48,178Z" transform="translate(-38 -46.92)" fill="#fcb787"></path><path d="M95.42,294.28a196.5,196.5,0,0,0,1.29-20.57h0c7.37,1.57,10.39.65,10.39.65h0c-2.08,10.73-4,21.49-4,21.49C101.22,296.78,95.12,295.69,95.42,294.28Z" transform="translate(-38 -46.92)" fill="#f1f1f1"></path><path d="M78.67,221.84s-4.57,14.28-5.79,22.71c-.24,1.64-.43,3-.65,4-.89,4.53-2.13,5.19-8.55,8.56-2.37,1.24-10,6.29-17.72,11.4L43.82,270a1.64,1.64,0,0,0-.22.14h0c0-.5-.05-1-.06-1.51v-2.16h0V263.9a17.5,17.5,0,0,1,.09-2.17,1.61,1.61,0,0,0,0-.31c0-.62.08-1.24.13-1.86V259a11.89,11.89,0,0,1,.11-1.2c.07-.76.16-1.52.25-2.28h0A61.81,61.81,0,0,1,59,244.83v-.69c.34-18.62,4.06-29.09,5.24-35.14a10.4,10.4,0,0,1,.72-2.32c1.79-4,5.67-4.78,8.71-4.92l1.58,6.39.2.81h0l.41,1.62Z" transform="translate(-38 -46.92)" fill="#fcb787"></path><path d="M73.2,248.73s-11.23-1-19.34-8.23c0,0,5.82-15.2,6.22-19.75s.55-20.14,13.63-19l11.77,15.31Z" transform="translate(-38 -46.92)" fill="#505365"></path><path d="M38,261.83c.39-.39.77-.76,1.15-1.12h0Z" transform="translate(-38 -46.92)" fill="#f1f1f1"></path><path d="M46,268.56,43.82,270l-.22.13c0-.5-.05-1-.06-1.51v-2.16l.57.57A9.6,9.6,0,0,0,46,268.56Z" transform="translate(-38 -46.92)" fill="#f1f1f1"></path><path d="M122.27,171a26.6,26.6,0,0,1-3.75,9.76c-.4.62-.82,1.22-1.26,1.79a18.83,18.83,0,0,0-5.9-1.83,6.33,6.33,0,0,0-5.56,2.13,9.51,9.51,0,0,0-1.39,3.92c-.9,4.69-2.57,9.27-2.71,14.08,0,.93.81,4.79.14,5.5a11.16,11.16,0,0,1-3.48,1.83,19.93,19.93,0,0,1-8.7,1A99.81,99.81,0,0,0,77.93,209c-1.4,0-2.72.07-3.88.07a25.42,25.42,0,0,1-3.49-.17,16.6,16.6,0,0,1-6.88-3c-1.21-.84,4-11.08,4.4-12.24s.8-2.16,1.16-3.24a44.82,44.82,0,0,0,2.48-13.27,7.57,7.57,0,0,0-.29-2.59c-1-3-6.73-2-9.29-2.2A1.89,1.89,0,0,1,61,172a1.76,1.76,0,0,1-.47-1c-.31-1.59-.59-3.19-.79-4.8v-.35h0c0-.37-.09-.73-.12-1.11a29.82,29.82,0,0,1-.09-3.78,11.07,11.07,0,0,0,.11-1.63c-.05-.52-.47-1-.24-1.53s1.09-.58,1.75-.53c2.83.18,5.58-1.09,8.42-1.16,1.89-.07,3.82.41,5.65,0a16.44,16.44,0,0,1,2.66-.67,9,9,0,0,1,2,.23c2.11.35,4.36-.09,6.38.64A23.3,23.3,0,0,0,92,158.06c1.79.16,3.65,0,5.47.09,4.65.26,8,2.68,11.51,5.38C112.92,166.51,117.94,168.58,122.27,171Z" transform="translate(-38 -46.92)" fill="#fff"></path><path d="M85.05,155.45a12.69,12.69,0,0,1,2,1.13c.7.48,1.38,1,2.11,1.44a11.26,11.26,0,0,0,3,.94,2.37,2.37,0,0,0,2.5-.48,13.52,13.52,0,0,0,.61-4,8.2,8.2,0,0,1-3.69-.69,18.16,18.16,0,0,1-3.41-1.34c-.54-.32-1.31-1.22-1.94-.78A13.61,13.61,0,0,0,85.05,155.45Z" transform="translate(-38 -46.92)" fill="#fcb787"></path><path d="M107.23,135.42a7.71,7.71,0,0,1-.58,3l-3.05,9.12a5.06,5.06,0,0,1-.76,1.61,7.93,7.93,0,0,1-1.6,1.23c-2,1.39-3.11,3.66-4.18,5.84-1.63.26-3.38-.8-5-1a2.64,2.64,0,0,0-1.82.37,2.78,2.78,0,0,0-3.06-2.31c-.69.11-1.48.47-2,.05-.34-.25-.45-.69-.66-1.05-.46-.79-1.39-1.2-1.91-2-1.38-2,1-4.63,1-7.1a12.85,12.85,0,0,0-.77-3.18c-1-4,1-8.15,3-11.81,2.37-.61,4.64-.08,7-.4,1.24-.16,2.35-.76,3.56-1a1.05,1.05,0,0,1,.24-.06c4.27-.68,7.14,2,9.24,5.38A7.41,7.41,0,0,1,107.23,135.42Z" transform="translate(-38 -46.92)" fill="#dd8049"></path><path d="M98.48,315.93c-8.86,3.38-18.36,2.59-27.27.22a53.14,53.14,0,0,1-20.43-20.78c14.42,2.27,35.2,11.37,65.34,12.72C122.78,308.4,104.67,313.58,98.48,315.93Z" transform="translate(-38 -46.92)" fill="url(#linear-gradient-14)"></path><path d="M118.52,180.71c-.4.62-.82,1.22-1.26,1.79a18.83,18.83,0,0,0-5.9-1.83,6.33,6.33,0,0,0-5.56,2.13,9.51,9.51,0,0,0-1.39,3.92c-.9,4.69-2.57,9.27-2.71,14.08,0,.93.81,4.79.14,5.5a11.16,11.16,0,0,1-3.48,1.83,3.71,3.71,0,0,1-2.11-.68,1.1,1.1,0,0,1-.29-.28c-.32-.5.15-1.11.53-1.57a11.29,11.29,0,0,0,1.85-4.3c.8-2.93,1.59-5.84,2.38-8.75a9.62,9.62,0,0,0,.52-3.61c-.12-1-.54-1.95-.68-3a2.65,2.65,0,0,1,1-2.68c.71-.42,1.67-.3,2.33-.79a2.07,2.07,0,0,0,.49-2.42,6.11,6.11,0,0,0-1.68-2,29.08,29.08,0,0,1,4.45-.73,34.23,34.23,0,0,1,5,1.07C113.92,178.8,116.91,179.23,118.52,180.71Z" transform="translate(-38 -46.92)" fill="url(#linear-gradient-15)"></path><path d="M71.26,167.41a6,6,0,0,1-.75,2,2,2,0,0,1-1.79.9,6,6,0,0,1-1-.36c-2.18-.85-4.93.58-6.88-.71-.12-.09-.27-.19-.42-.13a.37.37,0,0,0-.19.36,3.64,3.64,0,0,0,.5,1.85,1.68,1.68,0,0,0,.49.71c.46.33,1.09.13,1.64,0,1.69-.5,5.61.27,7.21,1,1.31.61,1.61,2.85,1.59.85,0-.92.22-2.39.16-3.27S71.08,168.13,71.26,167.41Z" transform="translate(-38 -46.92)" fill="url(#linear-gradient-16)"></path><path d="M88.4,136.5a2.32,2.32,0,0,1-.35-.53l.3-.2C88.37,136,88.38,136.26,88.4,136.5Z" transform="translate(-38 -46.92)" fill="url(#linear-gradient-17)"></path><path d="M88.9,131.36a4,4,0,0,0-.85,4.61,3.65,3.65,0,0,0-.92,3.35,13.1,13.1,0,0,1,.48,3.94c-.34,2-2.32,3.89-1.61,5.82l4-.44a.88.88,0,0,0,1.31,1.17c-.43,1.78.73,3.88.77,5.44a2.64,2.64,0,0,0-1.82.37,2.78,2.78,0,0,0-3.06-2.31c-.69.11-1.48.47-2,.05-.34-.25-.45-.69-.66-1.05-.46-.79-1.39-1.2-1.91-2-1.38-2,1-4.63,1-7.1a12.85,12.85,0,0,0-.77-3.18c-1-4,1-8.15,3-11.81,2.37-.61,4.64-.08,7-.4,1.24-.16,2.35-.76,3.56-1a17.47,17.47,0,0,1-4.12,2.68A11.39,11.39,0,0,0,88.9,131.36Z" transform="translate(-38 -46.92)" fill="url(#linear-gradient-18)"></path></g></svg>