<svg width="656" height="656" viewBox="0 0 656 656" fill="none" xmlns="http://www.w3.org/2000/svg">
<g clip-path="url(#clip0_0_1)">
<path fill-rule="evenodd" clip-rule="evenodd" d="M496.871 327.727V519.334H356.142V445.898C356.167 437.873 354.606 429.922 351.546 422.504C348.487 415.085 343.991 408.344 338.317 402.67C332.642 396.996 325.902 392.5 318.483 389.44C311.064 386.381 303.114 384.819 295.089 384.845C287.064 384.819 279.114 386.381 271.695 389.44C264.277 392.5 257.536 396.996 251.862 402.67C246.187 408.344 241.691 415.085 238.632 422.504C235.573 429.922 234.011 437.873 234.036 445.898V519.334H93.1153V327.727H496.871ZM554.564 146.297V519.334H504.839V146.297H554.564ZM497.639 133.817C498.816 121.452 502.438 109.445 508.294 98.491C512.71 90.8114 520.006 82.0759 529.701 82.0759C539.301 82.0759 546.692 90.7154 551.108 98.491C557.156 109.051 560.324 121.818 561.668 133.817L562.244 138.233H497.159L497.639 133.817V133.817ZM143.609 315.056C149.839 285.163 166.814 258.591 191.318 240.372C221.176 217.896 257.623 205.915 294.993 206.294C332.047 206.294 369.293 217.525 398.668 240.372C423.173 258.591 440.147 285.163 446.378 315.056L447.337 319.76H142.745L143.609 315.056ZM145.337 549.476H492.839C495.996 549.476 499.024 550.73 501.256 552.963C503.488 555.195 504.743 558.223 504.743 561.38C504.743 564.537 503.488 567.564 501.256 569.797C499.024 572.029 495.996 573.283 492.839 573.283H145.337C142.18 573.283 139.152 572.029 136.92 569.797C134.687 567.564 133.433 564.537 133.433 561.38C133.433 558.223 134.687 555.195 136.92 552.963C139.152 550.73 142.18 549.476 145.337 549.476V549.476ZM306.897 179.127V198.71L302.769 198.518C297.587 198.308 292.399 198.308 287.218 198.518L283.09 198.71V178.935C271.867 176.411 262.02 169.72 255.539 160.216C252.376 155.56 250.309 150.247 249.495 144.677C248.68 139.107 249.138 133.425 250.835 128.058C251.914 125.211 254.043 122.885 256.784 121.56C259.525 120.234 262.67 120.01 265.571 120.932C268.473 121.854 270.911 123.853 272.384 126.517C273.857 129.182 274.253 132.31 273.49 135.257L273.202 136.313C272.338 140.153 273.202 143.897 275.314 147.065C278.601 151.754 283.601 154.961 289.233 155.992C295.428 157.423 301.925 156.712 307.665 153.976C309.967 152.949 312.038 151.467 313.754 149.619C315.469 147.772 316.794 145.597 317.648 143.225C318.727 140.378 320.856 138.053 323.597 136.727C326.338 135.402 329.482 135.177 332.384 136.099C335.286 137.021 337.724 139.02 339.196 141.685C340.669 144.349 341.065 147.477 340.303 150.424C338.485 155.856 335.582 160.86 331.77 165.134C327.958 169.409 323.317 172.863 318.128 175.287C314.549 177.007 310.779 178.296 306.897 179.127Z" fill="#F8B720"/>
</g>
<defs>
<clipPath id="clip0_0_1">
<rect width="655.359" height="655.359" fill="white"/>
</clipPath>
</defs>
</svg>
