<svg width="380" height="190" viewBox="0 0 380 190" fill="none" xmlns="http://www.w3.org/2000/svg">
<g filter="url(#filter0_d_0_1)">
<path d="M40 70C40 42.3858 62.3858 20 90 20H330C335.523 20 340 24.4772 340 30V80C340 107.614 317.614 130 290 130H50C44.4772 130 40 125.523 40 120V70Z" fill="white"/>
<path d="M95 100C108.807 100 120 88.8071 120 75C120 61.1929 108.807 50 95 50C81.1929 50 70 61.1929 70 75C70 88.8071 81.1929 100 95 100Z" fill="#FDEDEF"/>
<path d="M101.092 85.4375C100.139 85.4375 98.7999 85.0928 96.795 83.9727C94.357 82.6055 92.4713 81.3433 90.0465 78.9248C87.7086 76.5884 86.5709 75.0757 84.9786 72.1783C83.1798 68.9068 83.4864 67.1919 83.8292 66.459C84.2374 65.583 84.8399 65.0591 85.6187 64.5391C86.0611 64.2493 86.5292 64.0008 87.0172 63.7969C87.066 63.7759 87.1114 63.7559 87.1519 63.7378C87.3936 63.6289 87.7599 63.4644 88.2237 63.6402C88.5333 63.7564 88.8097 63.9942 89.2423 64.4214C90.1295 65.2964 91.3419 67.2452 91.7891 68.2022C92.0894 68.8472 92.2882 69.273 92.2887 69.7505C92.2887 70.3096 92.0074 70.7408 91.6661 71.2061C91.6021 71.2935 91.5387 71.377 91.4771 71.458C91.1056 71.9463 91.024 72.0874 91.0777 72.3394C91.1866 72.8457 91.9986 74.3531 93.3331 75.6846C94.6676 77.0161 96.1314 77.7769 96.6397 77.8853C96.9024 77.9414 97.0465 77.8565 97.5504 77.4717C97.6226 77.4165 97.6969 77.3594 97.7745 77.3023C98.295 76.9151 98.7061 76.6411 99.252 76.6411H99.255C99.7301 76.6411 100.137 76.8472 100.811 77.187C101.69 77.6304 103.697 78.8272 104.577 79.7154C105.005 80.147 105.244 80.4224 105.361 80.7315C105.537 81.1968 105.371 81.5616 105.263 81.8057C105.245 81.8462 105.225 81.8907 105.204 81.94C104.999 82.4271 104.749 82.8942 104.458 83.3355C103.939 84.1119 103.413 84.7129 102.535 85.1216C102.084 85.3349 101.591 85.4429 101.092 85.4375Z" fill="#EE4A62"/>
<path d="M147.067 54.1L142.537 59.245L142.372 59.08L139.897 61.885L139.582 59.965L144.667 54.1H147.067ZM140.602 54.1V64H138.532V54.1H140.602ZM143.107 57.52L147.187 64H144.817L141.517 58.675L143.107 57.52ZM152.27 53.95C153.25 53.95 154.095 54.155 154.805 54.565C155.515 54.975 156.06 55.56 156.44 56.32C156.83 57.08 157.025 57.99 157.025 59.05C157.025 60.11 156.83 61.02 156.44 61.78C156.06 62.54 155.515 63.125 154.805 63.535C154.095 63.945 153.25 64.15 152.27 64.15C151.29 64.15 150.44 63.945 149.72 63.535C149.01 63.125 148.46 62.54 148.07 61.78C147.69 61.02 147.5 60.11 147.5 59.05C147.5 57.99 147.69 57.08 148.07 56.32C148.46 55.56 149.01 54.975 149.72 54.565C150.44 54.155 151.29 53.95 152.27 53.95ZM152.27 55.645C151.71 55.645 151.235 55.775 150.845 56.035C150.455 56.295 150.155 56.68 149.945 57.19C149.745 57.69 149.645 58.31 149.645 59.05C149.645 59.78 149.745 60.4 149.945 60.91C150.155 61.42 150.455 61.805 150.845 62.065C151.235 62.325 151.71 62.455 152.27 62.455C152.82 62.455 153.29 62.325 153.68 62.065C154.07 61.805 154.365 61.42 154.565 60.91C154.775 60.4 154.88 59.78 154.88 59.05C154.88 58.31 154.775 57.69 154.565 57.19C154.365 56.68 154.07 56.295 153.68 56.035C153.29 55.775 152.82 55.645 152.27 55.645ZM167.618 54.1V64H165.248L161.783 58.18L160.928 56.56H160.913L160.973 58.27V64H159.113V54.1H161.468L164.933 59.905L165.788 61.54H165.818L165.758 59.83V54.1H167.618ZM178.032 54.1V55.765H174.717V64H172.647V55.765H169.317V54.1H178.032ZM187.044 64H184.899L184.074 61.585H180.279L179.454 64H177.339L180.954 54.1H183.429L187.044 64ZM180.744 60.055H183.609L182.169 55.735L180.744 60.055ZM197.047 54.1L192.517 59.245L192.352 59.08L189.877 61.885L189.562 59.965L194.647 54.1H197.047ZM190.582 54.1V64H188.512V54.1H190.582ZM193.087 57.52L197.167 64H194.797L191.497 58.675L193.087 57.52ZM206.776 53.95C207.676 53.95 208.466 54.105 209.146 54.415C209.826 54.725 210.406 55.185 210.886 55.795L209.731 57.13C209.321 56.61 208.871 56.23 208.381 55.99C207.901 55.74 207.341 55.615 206.701 55.615C206.281 55.615 205.931 55.67 205.651 55.78C205.381 55.89 205.181 56.035 205.051 56.215C204.931 56.395 204.871 56.595 204.871 56.815C204.871 57.085 204.976 57.315 205.186 57.505C205.396 57.685 205.756 57.835 206.266 57.955L208.111 58.375C209.091 58.595 209.791 58.925 210.211 59.365C210.641 59.795 210.856 60.355 210.856 61.045C210.856 61.695 210.686 62.255 210.346 62.725C210.006 63.185 209.531 63.54 208.921 63.79C208.311 64.03 207.611 64.15 206.821 64.15C206.131 64.15 205.496 64.07 204.916 63.91C204.346 63.74 203.836 63.51 203.386 63.22C202.936 62.93 202.561 62.595 202.261 62.215L203.431 60.82C203.661 61.14 203.946 61.425 204.286 61.675C204.626 61.925 205.011 62.125 205.441 62.275C205.881 62.415 206.341 62.485 206.821 62.485C207.231 62.485 207.576 62.44 207.856 62.35C208.146 62.25 208.361 62.115 208.501 61.945C208.651 61.765 208.726 61.55 208.726 61.3C208.726 61.04 208.636 60.82 208.456 60.64C208.286 60.45 207.966 60.305 207.496 60.205L205.486 59.755C204.906 59.615 204.406 59.435 203.986 59.215C203.576 58.985 203.261 58.695 203.041 58.345C202.831 57.985 202.726 57.56 202.726 57.07C202.726 56.48 202.886 55.95 203.206 55.48C203.526 55.01 203.986 54.64 204.586 54.37C205.196 54.09 205.926 53.95 206.776 53.95ZM212.814 64V54.1H220.239V55.765H214.884V58.225H219.099V59.815H214.884V62.335H220.449V64H212.814ZM230.841 54.1L226.311 59.245L226.146 59.08L223.671 61.885L223.356 59.965L228.441 54.1H230.841ZM224.376 54.1V64H222.306V54.1H224.376ZM226.881 57.52L230.961 64H228.591L225.291 58.675L226.881 57.52ZM236.044 53.95C237.024 53.95 237.869 54.155 238.579 54.565C239.289 54.975 239.834 55.56 240.214 56.32C240.604 57.08 240.799 57.99 240.799 59.05C240.799 60.11 240.604 61.02 240.214 61.78C239.834 62.54 239.289 63.125 238.579 63.535C237.869 63.945 237.024 64.15 236.044 64.15C235.064 64.15 234.214 63.945 233.494 63.535C232.784 63.125 232.234 62.54 231.844 61.78C231.464 61.02 231.274 60.11 231.274 59.05C231.274 57.99 231.464 57.08 231.844 56.32C232.234 55.56 232.784 54.975 233.494 54.565C234.214 54.155 235.064 53.95 236.044 53.95ZM236.044 55.645C235.484 55.645 235.009 55.775 234.619 56.035C234.229 56.295 233.929 56.68 233.719 57.19C233.519 57.69 233.419 58.31 233.419 59.05C233.419 59.78 233.519 60.4 233.719 60.91C233.929 61.42 234.229 61.805 234.619 62.065C235.009 62.325 235.484 62.455 236.044 62.455C236.594 62.455 237.064 62.325 237.454 62.065C237.844 61.805 238.139 61.42 238.339 60.91C238.549 60.4 238.654 59.78 238.654 59.05C238.654 58.31 238.549 57.69 238.339 57.19C238.139 56.68 237.844 56.295 237.454 56.035C237.064 55.775 236.594 55.645 236.044 55.645ZM244.957 62.335H250.177V64H242.887V54.1H244.957V62.335ZM260.491 64H258.346L257.521 61.585H253.726L252.901 64H250.786L254.401 54.1H256.876L260.491 64ZM254.191 60.055H257.056L255.616 55.735L254.191 60.055ZM270.464 54.1V64H268.394V54.1H270.464ZM264.029 54.1V64H261.959V54.1H264.029ZM269.474 58.165V59.83H262.994V58.165H269.474Z" fill="#89898B"/>
<path d="M144.038 81.72V91.64H142.538V81.72H144.038ZM148.138 85.92V87.42H138.418V85.92H148.138ZM155.769 79.6C156.475 79.6 157.089 79.7 157.609 79.9C158.142 80.0867 158.602 80.3867 158.989 80.8C159.375 81.2 159.702 81.7267 159.969 82.38L158.489 83.08C158.289 82.4667 157.962 81.9867 157.509 81.64C157.069 81.28 156.455 81.1 155.669 81.1C155.095 81.1 154.589 81.2467 154.149 81.54C153.709 81.82 153.335 82.2133 153.029 82.72C152.722 83.2267 152.489 83.82 152.329 84.5C152.182 85.18 152.109 85.9133 152.109 86.7C152.109 86.7267 152.109 86.7667 152.109 86.82C152.109 86.8733 152.109 86.9533 152.109 87.06H152.189C152.335 86.4867 152.602 86.0267 152.989 85.68C153.389 85.32 153.835 85.06 154.329 84.9C154.835 84.7267 155.329 84.64 155.809 84.64C156.702 84.64 157.482 84.8133 158.149 85.16C158.815 85.5067 159.329 86 159.689 86.64C160.062 87.28 160.249 88.04 160.249 88.92C160.249 89.7867 160.062 90.5467 159.689 91.2C159.315 91.84 158.789 92.3333 158.109 92.68C157.442 93.0267 156.642 93.2 155.709 93.2C154.602 93.2 153.669 92.9067 152.909 92.32C152.149 91.7333 151.575 90.9333 151.189 89.92C150.802 88.8933 150.609 87.72 150.609 86.4C150.609 84.92 150.835 83.68 151.289 82.68C151.742 81.6667 152.355 80.9 153.129 80.38C153.915 79.86 154.795 79.6 155.769 79.6ZM155.689 86.18C155.115 86.18 154.609 86.3 154.169 86.54C153.742 86.7667 153.409 87.0867 153.169 87.5C152.929 87.9 152.809 88.3667 152.809 88.9C152.809 89.4067 152.935 89.8733 153.189 90.3C153.442 90.7133 153.782 91.0467 154.209 91.3C154.649 91.54 155.142 91.66 155.689 91.66C156.595 91.66 157.302 91.42 157.809 90.94C158.315 90.4467 158.569 89.7667 158.569 88.9C158.569 88.34 158.455 87.86 158.229 87.46C158.002 87.0467 157.675 86.7333 157.249 86.52C156.822 86.2933 156.302 86.18 155.689 86.18ZM162.957 93V91.7C164.277 90.7267 165.377 89.8733 166.257 89.14C167.15 88.4067 167.863 87.74 168.397 87.14C168.93 86.54 169.31 85.9733 169.537 85.44C169.763 84.8933 169.877 84.3267 169.877 83.74C169.877 82.9533 169.623 82.32 169.117 81.84C168.623 81.3467 167.943 81.1 167.077 81.1C166.17 81.1 165.443 81.4 164.897 82C164.35 82.5867 164.03 83.3733 163.937 84.36L162.537 83.52C162.657 82.7467 162.903 82.0667 163.277 81.48C163.663 80.8933 164.177 80.4333 164.817 80.1C165.47 79.7667 166.243 79.6 167.137 79.6C167.817 79.6 168.423 79.7 168.957 79.9C169.503 80.1 169.97 80.3867 170.357 80.76C170.743 81.12 171.037 81.5533 171.237 82.06C171.45 82.5667 171.557 83.1267 171.557 83.74C171.557 84.5667 171.357 85.38 170.957 86.18C170.557 86.9667 169.897 87.7933 168.977 88.66C168.057 89.5267 166.81 90.4867 165.237 91.54V91.56C165.383 91.5467 165.583 91.54 165.837 91.54C166.103 91.5267 166.363 91.52 166.617 91.52C166.883 91.5067 167.083 91.5 167.217 91.5H171.837V93H162.957ZM181.146 86.94V88.6H174.546V86.94H181.146ZM193.189 93H191.349L187.769 87.56L184.169 93H182.309L186.929 86.28L182.709 79.8H184.589L187.929 84.94L191.309 79.8H193.049L188.769 86.2L193.189 93ZM205.2 93H203.36L199.78 87.56L196.18 93H194.32L198.94 86.28L194.72 79.8H196.6L199.94 84.94L203.32 79.8H205.06L200.78 86.2L205.2 93ZM217.212 93H215.372L211.792 87.56L208.192 93H206.332L210.952 86.28L206.732 79.8H208.612L211.952 84.94L215.332 79.8H217.072L212.792 86.2L217.212 93ZM225.111 86.94V88.6H218.511V86.94H225.111ZM237.153 93H235.313L231.733 87.56L228.133 93H226.273L230.893 86.28L226.673 79.8H228.553L231.893 84.94L235.273 79.8H237.013L232.733 86.2L237.153 93ZM249.165 93H247.325L243.745 87.56L240.145 93H238.285L242.905 86.28L238.685 79.8H240.565L243.905 84.94L247.285 79.8H249.025L244.745 86.2L249.165 93ZM257.064 86.94V88.6H250.464V86.94H257.064ZM269.107 93H267.267L263.687 87.56L260.087 93H258.227L262.847 86.28L258.627 79.8H260.507L263.847 84.94L267.227 79.8H268.967L264.687 86.2L269.107 93ZM281.118 93H279.278L275.698 87.56L272.098 93H270.238L274.858 86.28L270.638 79.8H272.518L275.858 84.94L279.238 79.8H280.978L276.698 86.2L281.118 93ZM293.13 93H291.29L287.71 87.56L284.11 93H282.25L286.87 86.28L282.65 79.8H284.53L287.87 84.94L291.25 79.8H292.99L288.71 86.2L293.13 93Z" fill="#EE4A62"/>
</g>
<defs>
<filter id="filter0_d_0_1" x="36" y="20" width="308" height="118" filterUnits="userSpaceOnUse" color-interpolation-filters="sRGB">
<feFlood flood-opacity="0" result="BackgroundImageFix"/>
<feColorMatrix in="SourceAlpha" type="matrix" values="0 0 0 0 0 0 0 0 0 0 0 0 0 0 0 0 0 0 127 0" result="hardAlpha"/>
<feOffset dy="4"/>
<feGaussianBlur stdDeviation="2"/>
<feComposite in2="hardAlpha" operator="out"/>
<feColorMatrix type="matrix" values="0 0 0 0 0 0 0 0 0 0 0 0 0 0 0 0 0 0 0.25 0"/>
<feBlend mode="normal" in2="BackgroundImageFix" result="effect1_dropShadow_0_1"/>
<feBlend mode="normal" in="SourceGraphic" in2="effect1_dropShadow_0_1" result="shape"/>
</filter>
</defs>
</svg>
