<svg width="22" height="22" viewBox="0 0 22 22" fill="none" xmlns="http://www.w3.org/2000/svg">
<path d="M6.25444 14.5189C6.06183 14.7063 5.95371 14.9597 5.95371 15.2239C5.95371 15.4881 6.06183 15.7415 6.25444 15.9289C6.35058 16.0226 6.46496 16.097 6.59098 16.1478C6.717 16.1986 6.85217 16.2247 6.9887 16.2247C7.12522 16.2247 7.26039 16.1986 7.38641 16.1478C7.51243 16.097 7.62681 16.0226 7.72295 15.9289C7.91556 15.7415 8.02368 15.4881 8.02368 15.2239C8.02368 14.9597 7.91556 14.7063 7.72295 14.5189C7.62681 14.4252 7.51243 14.3508 7.38641 14.3C7.26039 14.2492 7.12522 14.2231 6.9887 14.2231C6.85217 14.2231 6.717 14.2492 6.59098 14.3C6.46496 14.3508 6.35058 14.4252 6.25444 14.5189ZM6.25444 6.0289C6.06183 6.21626 5.95371 6.46971 5.95371 6.7339C5.95371 6.99808 6.06183 7.25154 6.25444 7.4389C6.35058 7.53263 6.46496 7.60702 6.59098 7.65779C6.717 7.70856 6.85217 7.7347 6.9887 7.7347C7.12522 7.7347 7.26039 7.70856 7.38641 7.65779C7.51243 7.60702 7.62681 7.53263 7.72295 7.4389C7.91556 7.25154 8.02368 6.99808 8.02368 6.7339C8.02368 6.46971 7.91556 6.21626 7.72295 6.0289C7.62681 5.93517 7.51243 5.86078 7.38641 5.81001C7.26039 5.75924 7.12522 5.7331 6.9887 5.7331C6.85217 5.7331 6.717 5.75924 6.59098 5.81001C6.46496 5.86078 6.35058 5.93517 6.25444 6.0289ZM11.3735 16.0289C11.169 16.0289 10.9691 16.0875 10.799 16.1974C10.6289 16.3073 10.4964 16.4635 10.4181 16.6462C10.3398 16.8289 10.3193 17.03 10.3592 17.224C10.3992 17.418 10.4976 17.5962 10.6423 17.736C10.7869 17.8759 10.9712 17.9711 11.1718 18.0097C11.3724 18.0483 11.5803 18.0285 11.7693 17.9528C11.9583 17.8771 12.1198 17.7489 12.2334 17.5845C12.347 17.42 12.4077 17.2267 12.4077 17.0289C12.4147 16.8934 12.3932 16.758 12.3443 16.6308C12.2955 16.5037 12.2204 16.3875 12.1237 16.2892C12.027 16.191 11.9106 16.1129 11.7816 16.0595C11.6526 16.0062 11.5138 15.9787 11.3735 15.9789V16.0289ZM5.16857 10.0289C4.96403 10.0289 4.76409 10.0875 4.59402 10.1974C4.42396 10.3073 4.2914 10.4635 4.21313 10.6462C4.13486 10.8289 4.11438 11.03 4.15428 11.224C4.19418 11.418 4.29268 11.5962 4.43731 11.736C4.58194 11.8759 4.76621 11.9711 4.96682 12.0097C5.16742 12.0483 5.37536 12.0285 5.56433 11.9528C5.7533 11.8771 5.91481 11.7489 6.02845 11.5845C6.14208 11.42 6.20273 11.2267 6.20273 11.0289C6.20975 10.8934 6.18819 10.758 6.13936 10.6308C6.09054 10.5037 6.01548 10.3875 5.91874 10.2892C5.822 10.191 5.70561 10.1129 5.57665 10.0595C5.44768 10.0062 5.30884 9.97873 5.16857 9.9789V10.0289ZM11.3735 4.0289C11.169 4.0289 10.9691 4.08755 10.799 4.19743C10.6289 4.30731 10.4964 4.46349 10.4181 4.64621C10.3398 4.82894 10.3193 5.03001 10.3592 5.22399C10.3992 5.41797 10.4976 5.59615 10.6423 5.73601C10.7869 5.87586 10.9712 5.9711 11.1718 6.00968C11.3724 6.04827 11.5803 6.02847 11.7693 5.95278C11.9583 5.87709 12.1198 5.74892 12.2334 5.58447C12.347 5.42002 12.4077 5.22668 12.4077 5.0289C12.4147 4.89343 12.3932 4.758 12.3443 4.63084C12.2955 4.50369 12.2204 4.38746 12.1237 4.28924C12.027 4.19102 11.9106 4.11286 11.7816 4.05951C11.6526 4.00615 11.5138 3.97873 11.3735 3.9789V4.0289ZM15.0345 6.0789C14.8892 6.21851 14.7901 6.39668 14.7497 6.59083C14.7093 6.78497 14.7294 6.98634 14.8075 7.16941C14.8856 7.35249 15.0182 7.50902 15.1884 7.61916C15.3586 7.72931 15.5588 7.78811 15.7636 7.78811C15.9684 7.78811 16.1685 7.72931 16.3387 7.61916C16.5089 7.50902 16.6415 7.35249 16.7196 7.16941C16.7977 6.98634 16.8178 6.78497 16.7774 6.59083C16.737 6.39668 16.6379 6.21851 16.4926 6.0789C16.3058 5.88585 16.0475 5.77222 15.7742 5.76285C15.501 5.75348 15.235 5.84914 15.0345 6.0289V6.0789ZM21.5497 6.0789C20.6042 4.2512 19.1509 2.71432 17.3526 1.6406C15.5544 0.566881 13.4824 -0.00121923 11.369 1.96467e-06C9.25557 0.00122316 7.18427 0.571718 5.38738 1.64751C3.59049 2.72331 2.13905 4.26187 1.19582 6.09066C0.252591 7.91945 -0.145134 9.96617 0.0472455 12.0013C0.239625 14.0364 1.0145 15.9795 2.28499 17.6126C3.55547 19.2458 5.27132 20.5044 7.24014 21.2473C9.20896 21.9903 11.3529 22.1882 13.4315 21.8189C13.9542 21.7238 14.4521 21.5289 14.896 21.2456C15.3399 20.9623 15.721 20.5963 16.0169 20.1689C16.3358 19.7043 16.5558 19.1829 16.6641 18.6352C16.7724 18.0876 16.7669 17.5245 16.6478 16.9789C16.5826 16.6492 16.548 16.3145 16.5443 15.9789C16.5489 15.0099 16.8445 14.063 17.3953 13.2534C17.9461 12.4439 18.7283 11.8065 19.6468 11.4189C20.1421 11.2045 20.5866 10.8942 20.953 10.5072C21.3194 10.1203 21.5999 9.66477 21.7772 9.1689C21.9565 8.66218 22.0288 8.12581 21.9897 7.59158C21.9506 7.05736 21.801 6.53616 21.5497 6.0589V6.0789ZM19.7916 8.5189C19.7034 8.75822 19.5664 8.97799 19.3887 9.16521C19.2111 9.35243 18.9964 9.50331 18.7574 9.6089C17.4854 10.1595 16.4048 11.0534 15.6453 12.1834C14.8858 13.3134 14.4798 14.6313 14.476 15.9789C14.4776 16.449 14.526 16.9178 14.6208 17.3789C14.684 17.6607 14.6881 17.9519 14.6331 18.2353C14.578 18.5186 14.4648 18.7885 14.3002 19.0289C14.1609 19.2393 13.9776 19.4192 13.7621 19.557C13.5466 19.6947 13.3036 19.7874 13.0489 19.8289C12.4965 19.9293 11.9356 19.9795 11.3735 19.9789C10.1265 19.9795 8.89208 19.7377 7.74355 19.268C6.59503 18.7983 5.55582 18.1103 4.68765 17.2446C3.81948 16.379 3.14005 15.3536 2.6897 14.2291C2.23936 13.1046 2.02729 11.9041 2.06609 10.6989C2.14635 8.45169 3.08888 6.31385 4.71006 4.70186C6.33123 3.08987 8.51494 2.11918 10.8358 1.9789H11.3632C13.0962 1.97932 14.7947 2.44758 16.2673 3.33096C17.74 4.21434 18.9283 5.47775 19.6985 6.9789C19.9356 7.45388 19.9691 8.00018 19.7916 8.4989V8.5189ZM11.3735 9.9789C11.169 9.9789 10.9691 10.0375 10.799 10.1474C10.6289 10.2573 10.4964 10.4135 10.4181 10.5962C10.3398 10.7789 10.3193 10.98 10.3592 11.174C10.3992 11.368 10.4976 11.5462 10.6423 11.686C10.7869 11.8259 10.9712 11.9211 11.1718 11.9597C11.3724 11.9983 11.5803 11.9785 11.7693 11.9028C11.9583 11.8271 12.1198 11.6989 12.2334 11.5345C12.347 11.37 12.4077 11.1767 12.4077 10.9789C12.4077 10.7137 12.2987 10.4593 12.1048 10.2718C11.9109 10.0843 11.6478 9.9789 11.3735 9.9789Z" fill="#EE4A62"/>
</svg>
