<svg width="13" height="20" viewBox="0 0 13 20" fill="none" xmlns="http://www.w3.org/2000/svg">
<g clip-path="url(#clip0_0_1)">
<path fill-rule="evenodd" clip-rule="evenodd" d="M11.308 16.479C12.8915 15.4631 12.6935 14.1439 12.0486 12.4937C11.1228 10.1172 12.3168 9.82763 12.6233 7.32245C13.1788 2.81315 11.11 3.5578 10.8291 0C8.56238 2.07309 10.9759 4.85406 10.0693 6.43071C9.53291 5.37807 9.76916 3.94852 8.49214 2.89589C8.9391 4.6564 7.11935 5.80556 8.54961 7.99816C10.1331 10.4206 11.8571 12.9579 10.8802 15.0494C10.0693 13.4038 8.39637 11.9651 5.8998 12.2087C2.47741 12.5396 1.69204 14.3829 0 15.3942C1.41749 16.6215 1.09185 18.4463 3.99067 19.2462C6.65963 19.9816 9.72446 19.4254 10.8163 17.2374C11.1739 17.7798 11.193 18.7175 11.6081 19.3381C12.0295 19.9632 12.7382 20.2758 13 19.6736C11.7741 18.7819 12.0742 17.573 11.3143 16.4744L11.308 16.479Z" fill="#0D6EFD"/>
</g>
<defs>
<clipPath id="clip0_0_1">
<rect width="13" height="20" fill="white"/>
</clipPath>
</defs>
</svg>
