<svg width="320" height="320" viewBox="0 0 320 320" fill="none" xmlns="http://www.w3.org/2000/svg">
<g clip-path="url(#clip0_0_1)">
<path d="M94.6667 21.4667C86.1333 24.9334 79.7333 34.5334 79.7333 44C79.7333 57.2 90.4 68 103.467 68C117.867 68 128.933 56.1333 127.733 41.8667C126.4 26.4 109.2 15.7334 94.6667 21.4667Z" fill="#1AB69D"/>
<path d="M259.333 64.1333C198.4 70.8 169.467 78.4 162.533 89.7333C157.867 97.4667 160.533 107.867 167.333 108.267C170.4 108.533 285.6 68.4 288.933 66C291.867 63.8667 290 61.3333 285.6 61.4667C283.6 61.6 271.867 62.8 259.333 64.1333Z" fill="#1AB69D"/>
<path d="M121.333 71.6C118 72.8 116 76.2667 116 80.6667C116 85.6 121.867 95.6 133.467 111.067C148.133 130.4 184.267 170.8 185.733 169.333C186.667 168.4 145.6 89.6 140.4 82.1333C134.133 73.2 127.333 69.4667 121.333 71.6Z" fill="#1AB69D"/>
<path d="M78.9333 79.4667C69.6 84.1334 66.4 89.6 65.6 102C64.8 113.867 68.5333 127.6 74.4 134.533C77.6 138.4 79.3333 139.2 86 140.133C98.5333 141.867 128.667 138.133 134 134.133C138.4 130.933 134.8 129.733 117.867 128.8C86.9333 127.067 81.3333 124.667 81.3333 112.8C81.3333 105.067 84.8 101.067 94.4 97.4667C103.467 94.2667 106.533 89.8667 104.133 83.7334C101.067 75.4667 90.5333 73.7334 78.9333 79.4667Z" fill="#1AB69D"/>
<path d="M118.667 162.667C117.2 164.133 116 166.267 116 167.467C116 171.867 137.333 294.133 138.667 296.933C140.4 301.067 142.267 300.8 143.2 296.267C144.267 290.267 145.6 254.4 145.6 228C145.6 180 139.733 160 125.867 160C123.067 160 120.267 161.067 118.667 162.667Z" fill="#1AB69D"/>
</g>
<defs>
<clipPath id="clip0_0_1">
<rect width="320" height="320" fill="white"/>
</clipPath>
</defs>
</svg>
